<svg version="1.1" id="Layer_1" xmlns="http://www.w3.org/2000/svg" xmlns:xlink="http://www.w3.org/1999/xlink" x="0px" y="0px"
	 width="100%" viewBox="0 0 1024 1008" enable-background="new 0 0 1024 1008" xml:space="preserve">
<path fill="#000000" opacity="1.000000" stroke="none" 
	d="
M661.343140,411.000061 
	C661.345764,492.826080 661.350037,574.152100 661.345642,655.478149 
	C661.345215,663.105957 661.319519,663.119446 653.666748,663.124695 
	C631.168762,663.140198 608.670288,663.066528 586.173340,663.222534 
	C582.038269,663.251221 578.983887,662.117371 576.065796,659.070312 
	C538.611633,619.959778 501.047302,580.954651 463.501709,541.931763 
	C462.031677,540.403870 460.762939,538.578369 458.455658,538.002869 
	C456.528412,539.813293 457.340393,542.118652 457.335876,544.146301 
	C457.272400,572.643494 457.299225,601.140869 457.287506,629.638245 
	C457.280579,646.517944 442.057404,666.516724 425.300537,671.699951 
	C407.311584,677.264282 389.651825,670.888306 378.644196,654.633545 
	C372.269897,645.220825 368.586273,635.120178 368.706970,623.331970 
	C369.072052,587.672974 368.774261,552.007324 368.748138,516.344238 
	C368.742065,508.006714 370.519043,500.160767 375.310059,493.173065 
	C379.076630,487.679535 382.683502,482.067719 386.655792,476.727509 
	C388.818329,473.820251 388.843903,471.481873 386.598419,468.713593 
	C380.721375,461.468414 375.075623,454.033630 369.120056,446.854950 
	C366.212280,443.349915 364.664612,439.672882 364.685455,435.046600 
	C364.801880,409.216064 364.746155,383.384827 364.775848,357.553833 
	C364.778046,355.640930 364.358643,353.536804 367.005615,351.554108 
	C381.266998,368.373047 395.479248,385.134003 410.445251,402.783905 
	C412.302521,385.641998 411.217621,369.659546 412.897339,353.772827 
	C416.446686,370.162354 414.416504,386.823059 415.571960,404.378479 
	C430.561249,386.427612 444.962982,369.180328 459.365967,351.931580 
	C462.118774,353.902374 461.267487,356.086182 461.274597,357.925415 
	C461.347931,376.923462 461.394897,395.922272 461.270203,414.919708 
	C461.247772,418.343842 462.260742,420.862946 464.639404,423.331970 
	C500.358673,460.407898 535.994873,497.563934 571.663330,534.688843 
	C573.487549,536.587585 575.170715,538.669983 577.939087,540.163635 
	C578.863647,537.464050 578.673279,534.842712 578.674255,532.261353 
	C578.694214,478.932800 578.701660,425.604279 578.717163,372.275726 
	C578.719360,364.690735 578.732788,364.680054 586.434265,364.677673 
	C609.432190,364.670593 632.430969,364.769592 655.427429,364.587891 
	C659.928528,364.552338 661.532715,365.832458 661.434998,370.508026 
	C661.156677,383.833557 661.340454,397.168701 661.343140,411.000061 
z"/>
</svg>